<svg xmlns="http://www.w3.org/2000/svg" viewBox="0 0 48 48" role="img" aria-label="Shopify">
  <path fill="#95BF47" d="M38.5 8.5h-7.1c-.2-1.1-.8-2.1-1.7-2.8C28.8 4.8 27.4 4.5 26 4.5h-4c-1.4 0-2.8.3-3.7 1.2-.9.7-1.5 1.7-1.7 2.8H9.5C7.6 8.5 6 10.1 6 12v28c0 1.9 1.6 3.5 3.5 3.5h29c1.9 0 3.5-1.6 3.5-3.5V12c0-1.9-1.6-3.5-3.5-3.5z"/>
  <path fill="#5E8E3E" d="M26 4.5h-4c-1.4 0-2.8.3-3.7 1.2 1.1.3 2.1.9 2.8 1.7.7.9 1 2.1 1 3.3v1.8h4V10.5c0-1.2.3-2.4 1-3.3.7-.8 1.7-1.4 2.8-1.7-.9-.9-2.3-1.2-3.7-1.2z"/>
  <path fill="#fff" d="M17 18.5h14v3H17zm0 6h14v3H17zm0 6h10v3H17z"/>
</svg>
